<?xml version="1.0" encoding="UTF-8" standalone="no"?><!DOCTYPE svg PUBLIC "-//W3C//DTD SVG 1.1//EN" "http://www.w3.org/Graphics/SVG/1.1/DTD/svg11.dtd"><svg width="100%" height="100%" viewBox="0 0 856 410" version="1.1" xmlns="http://www.w3.org/2000/svg" xmlns:xlink="http://www.w3.org/1999/xlink" xml:space="preserve" xmlns:serif="http://www.serif.com/" style="fill-rule:evenodd;clip-rule:evenodd;stroke-linejoin:round;stroke-miterlimit:2;"><rect id="beerjs-cbba_words-icon_dark" x="0.855" y="0.55" width="854.841" height="408.895" style="fill:none;"/><g><g><g><path d="M244.51,68.897c0.067,-0.404 0.134,-0.809 0.134,-1.213c0,-13.681 -52.228,-33.629 -110.657,-33.629c-58.429,0 -113.623,18.937 -113.623,32.618c0,0.404 0.067,0.809 0.135,1.213l32.213,225.359l0.068,-0c-0,0.337 -0.068,0.674 -0.068,1.011c0,23.452 36.392,42.457 81.275,42.457c44.883,-0 81.275,-19.005 81.275,-42.457c-0,-0.337 -0.068,-0.674 -0.068,-1.011l0.068,-0l29.248,-224.348Z" style="fill:#b5cde3;fill-rule:nonzero;"/><path d="M55.812,162.841l17.387,128.652c0,-0 5.257,9.367 8.155,10.917c8.693,4.515 25.676,12.535 52.7,12.063c36.055,-0.606 57.486,-13.68 57.486,-13.68l5.795,-9.031l16.916,-134.514l-158.439,5.593Z" style="fill:#fbde34;fill-rule:nonzero;"/><path d="M48.399,99.493c2.494,-4.65 6.807,-11.052 11.794,-14.085c4.987,-3.033 36.122,-13.007 76.49,-12.67c40.3,0.337 71.974,11.861 76.624,16.983c4.65,5.122 8.424,15.029 8.424,15.029l-7.48,52.498c-0,-0 -7.144,4.919 -15.366,7.615c-8.221,2.696 -31.27,0.539 -38.076,3.505c-6.807,2.897 -26.081,13.343 -26.081,13.343c0,0 -17.454,13.95 -35.852,9.907c-11.659,-2.494 -23.655,-23.385 -31.877,-23.992c-6.402,-0.472 -10.513,-2.628 -10.513,-2.628c0,-0 -10.58,-60.855 -8.087,-65.505Z" style="fill:#fff;fill-rule:nonzero;"/><path d="M101.908,211.701c0,7.413 -7.615,13.411 -16.982,13.411c-9.368,-0 -16.983,-5.998 -16.983,-13.411c-0,-7.414 7.615,-13.411 16.983,-13.411c9.434,0.067 16.982,5.997 16.982,13.411Z" style="fill:#fff;fill-rule:nonzero;"/><path d="M98.337,229.02c-0,3.774 -3.774,6.874 -8.492,6.874c-4.717,0 -8.491,-3.1 -8.491,-6.874c-0,-3.774 3.774,-6.874 8.491,-6.874c4.718,0 8.492,3.1 8.492,6.874Z" style="fill:#fff;fill-rule:nonzero;"/></g><g><path d="M77.445,286.843l12.805,-7.751c2.493,4.381 4.717,8.088 10.108,8.088c5.189,-0 8.424,-2.022 8.424,-9.84l0,-53.374l15.635,-0l0,53.576c0,16.242 -9.502,23.655 -23.452,23.655c-12.535,0 -19.813,-6.537 -23.52,-14.354" style="fill:#343433;fill-rule:nonzero;"/><path d="M132.976,285.158l12.804,-7.413c3.37,5.526 7.751,9.502 15.501,9.502c6.469,-0 10.648,-3.235 10.648,-7.75c-0,-5.392 -4.246,-7.279 -11.457,-10.446l-3.909,-1.685c-11.322,-4.785 -18.802,-10.85 -18.802,-23.654c-0,-11.794 8.963,-20.757 22.981,-20.757c9.974,-0 17.184,3.504 22.306,12.535l-12.198,7.817c-2.695,-4.784 -5.593,-6.739 -10.108,-6.739c-4.583,0 -7.481,2.898 -7.481,6.739c-0,4.718 2.898,6.605 9.637,9.503l3.909,1.684c13.343,5.729 20.824,11.524 20.824,24.666c-0,14.152 -11.12,21.835 -26.013,21.835c-14.624,0.202 -24.059,-6.739 -28.642,-15.837" style="fill:#343433;fill-rule:nonzero;"/></g></g><g><g><path d="M328.628,146.974l37.456,-0c6.408,-0 11.398,1.804 14.971,5.414c3.572,3.609 5.358,8.397 5.358,14.363c0,2.946 -0.386,5.451 -1.16,7.513c-0.773,2.063 -1.805,3.757 -3.094,5.083c-1.289,1.326 -2.799,2.302 -4.53,2.928c-1.73,0.626 -3.59,0.976 -5.579,1.049l-0,0.663c1.841,0 3.775,0.332 5.8,0.995c2.026,0.663 3.886,1.712 5.58,3.148c1.694,1.437 3.112,3.297 4.254,5.58c1.142,2.284 1.712,5.083 1.712,8.397c0,3.02 -0.497,5.874 -1.491,8.563c-0.995,2.688 -2.376,5.027 -4.143,7.016c-1.768,1.989 -3.868,3.554 -6.298,4.696c-2.431,1.141 -5.083,1.712 -7.955,1.712l-40.881,0l0,-77.12Zm16.794,62.978l19.336,-0c2.209,-0 3.959,-0.608 5.248,-1.823c1.289,-1.216 1.933,-2.928 1.933,-5.138l0,-3.757c0,-2.209 -0.644,-3.922 -1.933,-5.137c-1.289,-1.216 -3.039,-1.823 -5.248,-1.823l-19.336,-0l0,17.678Zm0,-31.379l16.684,0c2.21,0 3.941,-0.626 5.193,-1.878c1.252,-1.252 1.878,-2.983 1.878,-5.193l0,-3.315c0,-2.209 -0.626,-3.94 -1.878,-5.192c-1.252,-1.253 -2.983,-1.879 -5.193,-1.879l-16.684,0l0,17.457Z" style="fill:#fff;fill-rule:nonzero;"/><path d="M410.058,224.094l-0,-77.12l52.481,-0l0,14.916l-35.687,-0l-0,15.689l30.605,-0l-0,14.916l-30.605,-0l-0,16.683l35.687,0l0,14.916l-52.481,0Z" style="fill:#fff;fill-rule:nonzero;"/><path d="M484.858,224.094l-0,-77.12l52.481,-0l0,14.916l-35.687,-0l-0,15.689l30.605,-0l-0,14.916l-30.605,-0l-0,16.683l35.687,0l0,14.916l-52.481,0Z" style="fill:#fff;fill-rule:nonzero;"/><path d="M576.452,224.094l-16.794,0l-0,-77.12l36.571,-0c3.536,-0 6.74,0.589 9.613,1.768c2.872,1.178 5.321,2.854 7.347,5.027c2.026,2.173 3.591,4.769 4.696,7.789c1.105,3.02 1.657,6.372 1.657,10.055c0,5.229 -1.16,9.796 -3.48,13.7c-2.321,3.904 -5.838,6.74 -10.552,8.508l15.137,30.273l-18.673,0l-13.479,-28.285l-12.043,0l-0,28.285Zm17.678,-42.427c2.504,-0 4.475,-0.645 5.911,-1.934c1.436,-1.289 2.154,-3.185 2.154,-5.69l0,-4.861c0,-2.505 -0.718,-4.401 -2.154,-5.69c-1.436,-1.289 -3.407,-1.934 -5.911,-1.934l-17.678,0l-0,20.109l17.678,-0Z" style="fill:#fff;fill-rule:nonzero;"/><path d="M683.183,146.974l-0,54.802c-0,3.535 -0.571,6.758 -1.713,9.667c-1.141,2.91 -2.817,5.377 -5.027,7.403c-2.21,2.026 -4.88,3.609 -8.01,4.751c-3.131,1.142 -6.685,1.713 -10.662,1.713c-3.831,-0 -7.2,-0.516 -10.11,-1.547c-2.909,-1.032 -5.414,-2.505 -7.513,-4.42c-2.099,-1.915 -3.812,-4.198 -5.138,-6.85c-1.326,-2.652 -2.246,-5.598 -2.762,-8.839l15.689,-3.094c1.253,6.703 4.457,10.055 9.613,10.055c2.43,-0 4.511,-0.774 6.242,-2.321c1.731,-1.546 2.597,-3.977 2.597,-7.292l-0,-40.549l-23.424,0l0,-13.479l40.218,-0Z" style="fill:#f7d518;fill-rule:nonzero;"/><path d="M732.46,225.42c-6.776,0 -12.522,-1.162 -17.236,-3.485c-4.714,-2.323 -8.728,-5.329 -12.043,-9.017l11.049,-11.173c5.23,5.839 11.675,8.759 19.335,8.759c4.125,0 7.182,-0.839 9.171,-2.518c1.988,-1.678 2.983,-3.905 2.983,-6.68c-0,-2.116 -0.589,-3.886 -1.768,-5.309c-1.179,-1.423 -3.572,-2.39 -7.182,-2.901l-7.623,-0.986c-8.176,-1.033 -14.161,-3.503 -17.955,-7.412c-3.793,-3.908 -5.69,-9.107 -5.69,-15.597c0,-3.467 0.663,-6.638 1.989,-9.514c1.326,-2.876 3.223,-5.347 5.69,-7.412c2.468,-2.066 5.488,-3.67 9.06,-4.813c3.573,-1.143 7.642,-1.714 12.209,-1.714c5.819,0 10.938,0.922 15.358,2.767c4.419,1.844 8.213,4.537 11.38,8.078l-11.159,11.289c-1.842,-2.114 -4.07,-3.846 -6.685,-5.195c-2.615,-1.349 -5.911,-2.023 -9.888,-2.023c-3.757,-0 -6.556,0.656 -8.397,1.968c-1.842,1.312 -2.763,3.134 -2.763,5.467c0,2.626 0.719,4.521 2.155,5.688c1.436,1.166 3.775,2.004 7.016,2.514l7.624,1.217c7.955,1.254 13.847,3.705 17.678,7.356c3.83,3.65 5.745,8.83 5.745,15.539c-0,3.687 -0.663,7.079 -1.989,10.176c-1.326,3.097 -3.259,5.751 -5.8,7.963c-2.542,2.212 -5.691,3.927 -9.447,5.143c-3.757,1.217 -8.029,1.825 -12.817,1.825Z" style="fill:#f7d518;fill-rule:nonzero;"/></g><g><path d="M345.413,311.092c-5.232,0 -9.338,-1.766 -12.316,-5.299c-2.979,-3.532 -4.469,-8.659 -4.469,-15.381c0,-3.361 0.382,-6.32 1.146,-8.879c0.764,-2.559 1.871,-4.717 3.323,-6.473c1.451,-1.757 3.217,-3.084 5.298,-3.982c2.082,-0.897 4.421,-1.346 7.018,-1.346c3.475,0 6.387,0.756 8.736,2.269c2.349,1.512 4.191,3.754 5.528,6.725l-5.442,2.979c-0.688,-1.91 -1.747,-3.428 -3.18,-4.554c-1.432,-1.127 -3.313,-1.69 -5.642,-1.69c-3.094,-0 -5.519,1.054 -7.275,3.162c-1.757,2.109 -2.636,5.023 -2.636,8.741l0,6.096c0,3.719 0.879,6.632 2.636,8.741c1.756,2.108 4.181,3.163 7.275,3.163c2.406,-0 4.363,-0.621 5.872,-1.862c1.508,-1.241 2.625,-2.836 3.351,-4.783l5.213,3.15c-1.337,2.897 -3.208,5.158 -5.614,6.784c-2.406,1.626 -5.347,2.439 -8.822,2.439Z" style="fill:#fff;fill-rule:nonzero;"/><path d="M392.902,311.092c-2.596,0 -4.955,-0.449 -7.074,-1.346c-2.12,-0.897 -3.934,-2.215 -5.442,-3.953c-1.509,-1.737 -2.674,-3.895 -3.495,-6.473c-0.821,-2.578 -1.231,-5.547 -1.231,-8.908c-0,-3.361 0.41,-6.33 1.231,-8.908c0.821,-2.578 1.986,-4.735 3.495,-6.473c1.508,-1.738 3.322,-3.055 5.442,-3.953c2.119,-0.897 4.478,-1.346 7.074,-1.346c2.597,0 4.956,0.449 7.075,1.346c2.12,0.898 3.934,2.215 5.442,3.953c1.509,1.738 2.674,3.895 3.495,6.473c0.821,2.578 1.231,5.547 1.231,8.908c0,3.361 -0.41,6.33 -1.231,8.908c-0.821,2.578 -1.986,4.736 -3.495,6.473c-1.508,1.738 -3.322,3.056 -5.442,3.953c-2.119,0.897 -4.478,1.346 -7.075,1.346Zm0,-5.728c1.528,-0 2.932,-0.269 4.211,-0.805c1.279,-0.537 2.368,-1.314 3.265,-2.329c0.898,-1.016 1.595,-2.253 2.091,-3.71c0.497,-1.457 0.745,-3.105 0.745,-4.945l-0,-6.326c-0,-1.84 -0.248,-3.488 -0.745,-4.945c-0.496,-1.457 -1.193,-2.693 -2.091,-3.709c-0.897,-1.016 -1.986,-1.792 -3.265,-2.329c-1.279,-0.537 -2.683,-0.805 -4.211,-0.805c-1.565,-0 -2.978,0.268 -4.239,0.805c-1.26,0.537 -2.339,1.313 -3.236,2.329c-0.898,1.016 -1.595,2.252 -2.091,3.709c-0.497,1.457 -0.745,3.105 -0.745,4.945l0,6.326c0,1.84 0.248,3.488 0.745,4.945c0.496,1.457 1.193,2.694 2.091,3.71c0.897,1.015 1.976,1.792 3.236,2.329c1.261,0.536 2.674,0.805 4.239,0.805Z" style="fill:#fff;fill-rule:nonzero;"/><path d="M444.688,311.092c-5.232,0 -9.337,-1.766 -12.316,-5.299c-2.979,-3.532 -4.468,-8.659 -4.468,-15.381c-0,-3.361 0.382,-6.32 1.146,-8.879c0.763,-2.559 1.871,-4.717 3.322,-6.473c1.451,-1.757 3.218,-3.084 5.299,-3.982c2.081,-0.897 4.421,-1.346 7.017,-1.346c3.476,0 6.388,0.756 8.736,2.269c2.349,1.512 4.192,3.754 5.529,6.725l-5.443,2.979c-0.687,-1.91 -1.747,-3.428 -3.179,-4.554c-1.432,-1.127 -3.313,-1.69 -5.643,-1.69c-3.093,-0 -5.518,1.054 -7.275,3.162c-1.757,2.109 -2.635,5.023 -2.635,8.741l0,6.096c0,3.719 0.878,6.632 2.635,8.741c1.757,2.108 4.182,3.163 7.275,3.163c2.406,-0 4.364,-0.621 5.872,-1.862c1.509,-1.241 2.626,-2.836 3.351,-4.783l5.213,3.15c-1.336,2.897 -3.208,5.158 -5.614,6.784c-2.406,1.626 -5.346,2.439 -8.822,2.439Z" style="fill:#fff;fill-rule:nonzero;"/><path d="M502.031,292.99l-18.102,0l-0,17.415l-6.473,-0l-0,-39.985l6.473,-0l-0,16.841l18.102,0l0,-16.841l6.473,-0l0,39.985l-6.473,-0l0,-17.415Z" style="fill:#fff;fill-rule:nonzero;"/><path d="M554.791,310.405l-3.609,-10.827l-14.951,-0l-3.495,10.827l-6.588,-0l13.634,-39.985l8.135,-0l13.634,39.985l-6.76,-0Zm-10.942,-34.028l-0.286,0l-5.786,17.644l11.801,0l-5.729,-17.644Z" style="fill:#fff;fill-rule:nonzero;"/><path d="M579.195,270.42l17.701,-0c3.322,-0 5.929,0.935 7.819,2.807c1.891,1.871 2.836,4.372 2.836,7.504c-0,1.489 -0.21,2.759 -0.63,3.809c-0.42,1.051 -0.955,1.91 -1.604,2.578c-0.65,0.669 -1.394,1.165 -2.234,1.49c-0.841,0.324 -1.662,0.525 -2.464,0.601l0,0.344c0.802,0.038 1.69,0.229 2.664,0.573c0.974,0.343 1.881,0.888 2.721,1.632c0.84,0.745 1.547,1.7 2.12,2.865c0.573,1.164 0.859,2.587 0.859,4.267c-0,1.604 -0.258,3.113 -0.773,4.526c-0.516,1.413 -1.232,2.635 -2.149,3.666c-0.916,1.031 -2.005,1.843 -3.265,2.435c-1.26,0.592 -2.635,0.888 -4.124,0.888l-19.477,-0l-0,-39.985Zm6.473,34.428l11.113,0c1.681,0 2.998,-0.439 3.953,-1.317c0.955,-0.879 1.432,-2.139 1.432,-3.781l0,-1.948c0,-1.642 -0.477,-2.902 -1.432,-3.781c-0.955,-0.878 -2.272,-1.317 -3.953,-1.317l-11.113,-0l-0,12.144Zm-0,-17.529l10.025,-0c1.604,-0 2.845,-0.411 3.723,-1.232c0.879,-0.821 1.318,-1.995 1.318,-3.523l-0,-1.833c-0,-1.528 -0.439,-2.702 -1.318,-3.523c-0.878,-0.821 -2.119,-1.232 -3.723,-1.232l-10.025,0l-0,11.343Z" style="fill:#fff;fill-rule:nonzero;"/><path d="M652.692,310.405l-3.609,-10.827l-14.952,-0l-3.494,10.827l-6.588,-0l13.634,-39.985l8.134,-0l13.634,39.985l-6.759,-0Zm-10.942,-34.028l-0.286,0l-5.786,17.644l11.801,0l-5.729,-17.644Z" style="fill:#fff;fill-rule:nonzero;"/><path d="M707.686,279.814l-0.287,0l-3.15,6.474l-8.765,15.982l-8.765,-15.982l-3.15,-6.474l-0.287,0l0,30.591l-6.187,-0l0,-39.985l7.677,-0l10.712,20.336l0.344,-0l10.712,-20.336l7.333,-0l-0,39.985l-6.187,-0l-0,-30.591Z" style="fill:#fff;fill-rule:nonzero;"/><path d="M735.183,270.42l17.701,-0c3.322,-0 5.929,0.935 7.819,2.807c1.891,1.871 2.836,4.372 2.836,7.504c-0,1.489 -0.21,2.759 -0.63,3.809c-0.42,1.051 -0.955,1.91 -1.604,2.578c-0.649,0.669 -1.394,1.165 -2.234,1.49c-0.84,0.324 -1.662,0.525 -2.464,0.601l0,0.344c0.802,0.038 1.69,0.229 2.664,0.573c0.974,0.343 1.881,0.888 2.721,1.632c0.84,0.745 1.547,1.7 2.12,2.865c0.573,1.164 0.859,2.587 0.859,4.267c0,1.604 -0.258,3.113 -0.773,4.526c-0.516,1.413 -1.232,2.635 -2.148,3.666c-0.917,1.031 -2.005,1.843 -3.266,2.435c-1.26,0.592 -2.635,0.888 -4.124,0.888l-19.477,-0l-0,-39.985Zm6.473,34.428l11.113,0c1.681,0 2.998,-0.439 3.953,-1.317c0.955,-0.879 1.432,-2.139 1.432,-3.781l0,-1.948c0,-1.642 -0.477,-2.902 -1.432,-3.781c-0.955,-0.878 -2.272,-1.317 -3.953,-1.317l-11.113,-0l-0,12.144Zm-0,-17.529l10.025,-0c1.604,-0 2.845,-0.411 3.723,-1.232c0.879,-0.821 1.318,-1.995 1.318,-3.523l0,-1.833c0,-1.528 -0.439,-2.702 -1.318,-3.523c-0.878,-0.821 -2.119,-1.232 -3.723,-1.232l-10.025,0l-0,11.343Z" style="fill:#fff;fill-rule:nonzero;"/><path d="M808.68,310.405l-3.609,-10.827l-14.952,-0l-3.494,10.827l-6.588,-0l13.634,-39.985l8.135,-0l13.634,39.985l-6.76,-0Zm-10.942,-34.028l-0.286,0l-5.786,17.644l11.801,0l-5.729,-17.644Z" style="fill:#fff;fill-rule:nonzero;"/></g></g></g></svg>