<?xml version="1.0" encoding="UTF-8" standalone="no"?><!DOCTYPE svg PUBLIC "-//W3C//DTD SVG 1.1//EN" "http://www.w3.org/Graphics/SVG/1.1/DTD/svg11.dtd"><svg width="100%" height="100%" viewBox="0 0 856 410" version="1.1" xmlns="http://www.w3.org/2000/svg" xmlns:xlink="http://www.w3.org/1999/xlink" xml:space="preserve" xmlns:serif="http://www.serif.com/" style="fill-rule:evenodd;clip-rule:evenodd;stroke-linejoin:round;stroke-miterlimit:2;"><rect id="beerjs-cbba_words-icon" x="0.855" y="0.132" width="854.841" height="408.895" style="fill:none;"/><g><g><g><path d="M244.51,68.48c0.067,-0.405 0.134,-0.809 0.134,-1.214c0,-13.68 -52.228,-33.628 -110.657,-33.628c-58.429,-0 -113.623,18.937 -113.623,32.618c0,0.404 0.067,0.808 0.135,1.213l32.213,225.358l0.068,0c-0,0.337 -0.068,0.674 -0.068,1.011c0,23.453 36.392,42.457 81.275,42.457c44.883,0 81.275,-19.004 81.275,-42.457c-0,-0.337 -0.068,-0.674 -0.068,-1.011l0.068,0l29.248,-224.347Z" style="fill:#b5cde3;fill-rule:nonzero;"/><path d="M55.812,162.424l17.387,128.651c0,0 5.257,9.368 8.155,10.918c8.693,4.515 25.676,12.535 52.7,12.063c36.055,-0.607 57.486,-13.681 57.486,-13.681l5.795,-9.03l16.916,-134.515l-158.439,5.594Z" style="fill:#fbde34;fill-rule:nonzero;"/><path d="M48.399,99.075c2.494,-4.65 6.807,-11.052 11.794,-14.084c4.987,-3.033 36.122,-13.007 76.49,-12.67c40.3,0.337 71.974,11.861 76.624,16.983c4.65,5.121 8.424,15.028 8.424,15.028l-7.48,52.498c-0,0 -7.144,4.92 -15.366,7.616c-8.221,2.695 -31.27,0.539 -38.076,3.504c-6.807,2.898 -26.081,13.344 -26.081,13.344c0,-0 -17.454,13.95 -35.852,9.906c-11.659,-2.493 -23.655,-23.385 -31.877,-23.991c-6.402,-0.472 -10.513,-2.629 -10.513,-2.629c0,0 -10.58,-60.854 -8.087,-65.505Z" style="fill:#fff;fill-rule:nonzero;"/><path d="M101.908,211.283c0,7.413 -7.615,13.411 -16.982,13.411c-9.368,0 -16.983,-5.998 -16.983,-13.411c-0,-7.413 7.615,-13.411 16.983,-13.411c9.434,0.067 16.982,5.998 16.982,13.411Z" style="fill:#fff;fill-rule:nonzero;"/><path d="M98.337,228.603c-0,3.774 -3.774,6.874 -8.492,6.874c-4.717,-0 -8.491,-3.1 -8.491,-6.874c-0,-3.774 3.774,-6.874 8.491,-6.874c4.718,-0 8.492,3.1 8.492,6.874Z" style="fill:#fff;fill-rule:nonzero;"/></g><g><path d="M77.445,286.425l12.805,-7.75c2.493,4.38 4.717,8.087 10.108,8.087c5.189,0 8.424,-2.022 8.424,-9.839l0,-53.375l15.635,0l0,53.577c0,16.241 -9.502,23.655 -23.452,23.655c-12.535,-0 -19.813,-6.537 -23.52,-14.355" style="fill:#343433;fill-rule:nonzero;"/><path d="M132.976,284.74l12.804,-7.413c3.37,5.526 7.751,9.502 15.501,9.502c6.469,0 10.648,-3.234 10.648,-7.75c-0,-5.391 -4.246,-7.278 -11.457,-10.445l-3.909,-1.685c-11.322,-4.785 -18.802,-10.85 -18.802,-23.655c-0,-11.793 8.963,-20.756 22.981,-20.756c9.974,-0 17.184,3.504 22.306,12.534l-12.198,7.818c-2.695,-4.785 -5.593,-6.739 -10.108,-6.739c-4.583,-0 -7.481,2.898 -7.481,6.739c-0,4.717 2.898,6.604 9.637,9.502l3.909,1.685c13.343,5.728 20.824,11.524 20.824,24.665c-0,14.153 -11.12,21.835 -26.013,21.835c-14.624,0.203 -24.059,-6.739 -28.642,-15.837" style="fill:#343433;fill-rule:nonzero;"/></g></g><g><g><path d="M328.628,146.556l37.456,0c6.408,0 11.398,1.805 14.971,5.414c3.572,3.61 5.358,8.397 5.358,14.364c0,2.946 -0.386,5.45 -1.16,7.513c-0.773,2.062 -1.805,3.756 -3.094,5.082c-1.289,1.326 -2.799,2.302 -4.53,2.928c-1.73,0.626 -3.59,0.976 -5.579,1.05l-0,0.663c1.841,-0 3.775,0.331 5.8,0.994c2.026,0.663 3.886,1.713 5.58,3.149c1.694,1.436 3.112,3.296 4.254,5.58c1.142,2.283 1.712,5.082 1.712,8.397c0,3.02 -0.497,5.874 -1.491,8.562c-0.995,2.689 -2.376,5.028 -4.143,7.016c-1.768,1.989 -3.868,3.554 -6.298,4.696c-2.431,1.142 -5.083,1.713 -7.955,1.713l-40.881,-0l0,-77.121Zm16.794,62.978l19.336,0c2.209,0 3.959,-0.607 5.248,-1.823c1.289,-1.215 1.933,-2.928 1.933,-5.137l0,-3.757c0,-2.21 -0.644,-3.922 -1.933,-5.138c-1.289,-1.215 -3.039,-1.823 -5.248,-1.823l-19.336,0l0,17.678Zm0,-31.378l16.684,-0c2.21,-0 3.941,-0.626 5.193,-1.878c1.252,-1.253 1.878,-2.984 1.878,-5.193l0,-3.315c0,-2.21 -0.626,-3.941 -1.878,-5.193c-1.252,-1.252 -2.983,-1.878 -5.193,-1.878l-16.684,-0l0,17.457Z" style="fill:#343433;fill-rule:nonzero;"/><path d="M410.058,223.677l-0,-77.121l52.481,0l0,14.916l-35.687,0l-0,15.689l30.605,0l-0,14.916l-30.605,0l-0,16.684l35.687,-0l0,14.916l-52.481,-0Z" style="fill:#343433;fill-rule:nonzero;"/><path d="M484.858,223.677l-0,-77.121l52.481,0l0,14.916l-35.687,0l-0,15.689l30.605,0l-0,14.916l-30.605,0l-0,16.684l35.687,-0l0,14.916l-52.481,-0Z" style="fill:#343433;fill-rule:nonzero;"/><path d="M576.452,223.677l-16.794,-0l-0,-77.121l36.571,0c3.536,0 6.74,0.59 9.613,1.768c2.872,1.179 5.321,2.854 7.347,5.027c2.026,2.173 3.591,4.77 4.696,7.79c1.105,3.02 1.657,6.371 1.657,10.054c0,5.23 -1.16,9.797 -3.48,13.701c-2.321,3.903 -5.838,6.739 -10.552,8.507l15.137,30.274l-18.673,-0l-13.479,-28.285l-12.043,-0l-0,28.285Zm17.678,-42.428c2.504,0 4.475,-0.644 5.911,-1.933c1.436,-1.289 2.154,-3.186 2.154,-5.69l0,-4.862c0,-2.504 -0.718,-4.401 -2.154,-5.69c-1.436,-1.289 -3.407,-1.933 -5.911,-1.933l-17.678,-0l-0,20.108l17.678,0Z" style="fill:#343433;fill-rule:nonzero;"/><path d="M683.183,146.556l-0,54.802c-0,3.536 -0.571,6.758 -1.713,9.668c-1.141,2.909 -2.817,5.377 -5.027,7.403c-2.21,2.025 -4.88,3.609 -8.01,4.751c-3.131,1.141 -6.685,1.712 -10.662,1.712c-3.831,0 -7.2,-0.516 -10.11,-1.547c-2.909,-1.031 -5.414,-2.504 -7.513,-4.419c-2.099,-1.915 -3.812,-4.199 -5.138,-6.85c-1.326,-2.652 -2.246,-5.599 -2.762,-8.839l15.689,-3.094c1.253,6.703 4.457,10.054 9.613,10.054c2.43,0 4.511,-0.773 6.242,-2.32c1.731,-1.547 2.597,-3.978 2.597,-7.292l-0,-40.549l-23.424,-0l0,-13.48l40.218,0Z" style="fill:#f7d518;fill-rule:nonzero;"/><path d="M732.46,225.003c-6.776,-0 -12.522,-1.162 -17.236,-3.485c-4.714,-2.323 -8.728,-5.329 -12.043,-9.018l11.049,-11.173c5.23,5.84 11.675,8.76 19.335,8.76c4.125,-0 7.182,-0.84 9.171,-2.518c1.988,-1.679 2.983,-3.906 2.983,-6.68c-0,-2.117 -0.589,-3.887 -1.768,-5.31c-1.179,-1.423 -3.572,-2.39 -7.182,-2.901l-7.623,-0.986c-8.176,-1.032 -14.161,-3.503 -17.955,-7.411c-3.793,-3.909 -5.69,-9.108 -5.69,-15.598c0,-3.466 0.663,-6.638 1.989,-9.514c1.326,-2.876 3.223,-5.347 5.69,-7.412c2.468,-2.065 5.488,-3.669 9.06,-4.812c3.573,-1.143 7.642,-1.714 12.209,-1.714c5.819,-0 10.938,0.922 15.358,2.766c4.419,1.844 8.213,4.537 11.38,8.079l-11.159,11.288c-1.842,-2.114 -4.07,-3.845 -6.685,-5.194c-2.615,-1.349 -5.911,-2.024 -9.888,-2.024c-3.757,0 -6.556,0.656 -8.397,1.968c-1.842,1.312 -2.763,3.135 -2.763,5.468c0,2.625 0.719,4.521 2.155,5.687c1.436,1.167 3.775,2.005 7.016,2.515l7.624,1.217c7.955,1.253 13.847,3.705 17.678,7.355c3.83,3.65 5.745,8.83 5.745,15.54c-0,3.686 -0.663,7.078 -1.989,10.175c-1.326,3.097 -3.259,5.752 -5.8,7.964c-2.542,2.212 -5.691,3.926 -9.447,5.143c-3.757,1.216 -8.029,1.825 -12.817,1.825Z" style="fill:#f7d518;fill-rule:nonzero;"/></g><g><path d="M345.413,310.675c-5.232,-0 -9.338,-1.767 -12.316,-5.299c-2.979,-3.533 -4.469,-8.66 -4.469,-15.381c0,-3.361 0.382,-6.321 1.146,-8.88c0.764,-2.558 1.871,-4.716 3.323,-6.473c1.451,-1.757 3.217,-3.084 5.298,-3.981c2.082,-0.898 4.421,-1.346 7.018,-1.346c3.475,-0 6.387,0.756 8.736,2.268c2.349,1.513 4.191,3.754 5.528,6.726l-5.442,2.978c-0.688,-1.909 -1.747,-3.427 -3.18,-4.554c-1.432,-1.126 -3.313,-1.69 -5.642,-1.69c-3.094,0 -5.519,1.054 -7.275,3.163c-1.757,2.109 -2.636,5.022 -2.636,8.741l0,6.095c0,3.719 0.879,6.633 2.636,8.741c1.756,2.109 4.181,3.163 7.275,3.163c2.406,0 4.363,-0.62 5.872,-1.862c1.508,-1.241 2.625,-2.835 3.351,-4.783l5.213,3.151c-1.337,2.896 -3.208,5.158 -5.614,6.784c-2.406,1.626 -5.347,2.439 -8.822,2.439Z" style="fill:#343433;fill-rule:nonzero;"/><path d="M392.902,310.675c-2.596,-0 -4.955,-0.449 -7.074,-1.346c-2.12,-0.898 -3.934,-2.215 -5.442,-3.953c-1.509,-1.738 -2.674,-3.896 -3.495,-6.473c-0.821,-2.578 -1.231,-5.548 -1.231,-8.908c-0,-3.361 0.41,-6.33 1.231,-8.908c0.821,-2.578 1.986,-4.736 3.495,-6.473c1.508,-1.738 3.322,-3.056 5.442,-3.953c2.119,-0.898 4.478,-1.346 7.074,-1.346c2.597,-0 4.956,0.448 7.075,1.346c2.12,0.897 3.934,2.215 5.442,3.953c1.509,1.737 2.674,3.895 3.495,6.473c0.821,2.578 1.231,5.547 1.231,8.908c0,3.36 -0.41,6.33 -1.231,8.908c-0.821,2.577 -1.986,4.735 -3.495,6.473c-1.508,1.738 -3.322,3.055 -5.442,3.953c-2.119,0.897 -4.478,1.346 -7.075,1.346Zm0,-5.729c1.528,0 2.932,-0.268 4.211,-0.805c1.279,-0.537 2.368,-1.313 3.265,-2.329c0.898,-1.016 1.595,-2.252 2.091,-3.709c0.497,-1.457 0.745,-3.105 0.745,-4.945l-0,-6.327c-0,-1.839 -0.248,-3.488 -0.745,-4.944c-0.496,-1.457 -1.193,-2.694 -2.091,-3.71c-0.897,-1.016 -1.986,-1.792 -3.265,-2.329c-1.279,-0.536 -2.683,-0.805 -4.211,-0.805c-1.565,0 -2.978,0.269 -4.239,0.805c-1.26,0.537 -2.339,1.313 -3.236,2.329c-0.898,1.016 -1.595,2.253 -2.091,3.71c-0.497,1.456 -0.745,3.105 -0.745,4.944l0,6.327c0,1.84 0.248,3.488 0.745,4.945c0.496,1.457 1.193,2.693 2.091,3.709c0.897,1.016 1.976,1.792 3.236,2.329c1.261,0.537 2.674,0.805 4.239,0.805Z" style="fill:#343433;fill-rule:nonzero;"/><path d="M444.688,310.675c-5.232,-0 -9.337,-1.767 -12.316,-5.299c-2.979,-3.533 -4.468,-8.66 -4.468,-15.381c-0,-3.361 0.382,-6.321 1.146,-8.88c0.763,-2.558 1.871,-4.716 3.322,-6.473c1.451,-1.757 3.218,-3.084 5.299,-3.981c2.081,-0.898 4.421,-1.346 7.017,-1.346c3.476,-0 6.388,0.756 8.736,2.268c2.349,1.513 4.192,3.754 5.529,6.726l-5.443,2.978c-0.687,-1.909 -1.747,-3.427 -3.179,-4.554c-1.432,-1.126 -3.313,-1.69 -5.643,-1.69c-3.093,0 -5.518,1.054 -7.275,3.163c-1.757,2.109 -2.635,5.022 -2.635,8.741l0,6.095c0,3.719 0.878,6.633 2.635,8.741c1.757,2.109 4.182,3.163 7.275,3.163c2.406,0 4.364,-0.62 5.872,-1.862c1.509,-1.241 2.626,-2.835 3.351,-4.783l5.213,3.151c-1.336,2.896 -3.208,5.158 -5.614,6.784c-2.406,1.626 -5.346,2.439 -8.822,2.439Z" style="fill:#343433;fill-rule:nonzero;"/><path d="M502.031,292.573l-18.102,-0l-0,17.414l-6.473,0l-0,-39.985l6.473,0l-0,16.842l18.102,0l0,-16.842l6.473,0l0,39.985l-6.473,0l0,-17.414Z" style="fill:#343433;fill-rule:nonzero;"/><path d="M554.791,309.987l-3.609,-10.827l-14.951,0l-3.495,10.827l-6.588,0l13.634,-39.985l8.135,0l13.634,39.985l-6.76,0Zm-10.942,-34.027l-0.286,-0l-5.786,17.644l11.801,-0l-5.729,-17.644Z" style="fill:#343433;fill-rule:nonzero;"/><path d="M579.195,270.002l17.701,0c3.322,0 5.929,0.936 7.819,2.807c1.891,1.871 2.836,4.373 2.836,7.504c-0,1.49 -0.21,2.76 -0.63,3.81c-0.42,1.05 -0.955,1.909 -1.604,2.578c-0.65,0.668 -1.394,1.165 -2.234,1.489c-0.841,0.325 -1.662,0.525 -2.464,0.602l0,0.343c0.802,0.039 1.69,0.23 2.664,0.573c0.974,0.344 1.881,0.888 2.721,1.633c0.84,0.745 1.547,1.699 2.12,2.864c0.573,1.165 0.859,2.588 0.859,4.268c-0,1.604 -0.258,3.112 -0.773,4.526c-0.516,1.413 -1.232,2.635 -2.149,3.666c-0.916,1.031 -2.005,1.842 -3.265,2.434c-1.26,0.592 -2.635,0.888 -4.124,0.888l-19.477,0l-0,-39.985Zm6.473,34.429l11.113,-0c1.681,-0 2.998,-0.44 3.953,-1.318c0.955,-0.878 1.432,-2.139 1.432,-3.781l0,-1.947c0,-1.643 -0.477,-2.903 -1.432,-3.781c-0.955,-0.879 -2.272,-1.318 -3.953,-1.318l-11.113,0l-0,12.145Zm-0,-17.53l10.025,0c1.604,0 2.845,-0.41 3.723,-1.231c0.879,-0.821 1.318,-1.996 1.318,-3.523l-0,-1.834c-0,-1.527 -0.439,-2.701 -1.318,-3.523c-0.878,-0.821 -2.119,-1.231 -3.723,-1.231l-10.025,-0l-0,11.342Z" style="fill:#343433;fill-rule:nonzero;"/><path d="M652.692,309.987l-3.609,-10.827l-14.952,0l-3.494,10.827l-6.588,0l13.634,-39.985l8.134,0l13.634,39.985l-6.759,0Zm-10.942,-34.027l-0.286,-0l-5.786,17.644l11.801,-0l-5.729,-17.644Z" style="fill:#343433;fill-rule:nonzero;"/><path d="M707.686,279.397l-0.287,-0l-3.15,6.473l-8.765,15.983l-8.765,-15.983l-3.15,-6.473l-0.287,-0l0,30.59l-6.187,0l0,-39.985l7.677,0l10.712,20.336l0.344,0l10.712,-20.336l7.333,0l-0,39.985l-6.187,0l-0,-30.59Z" style="fill:#343433;fill-rule:nonzero;"/><path d="M735.183,270.002l17.701,0c3.322,0 5.929,0.936 7.819,2.807c1.891,1.871 2.836,4.373 2.836,7.504c-0,1.49 -0.21,2.76 -0.63,3.81c-0.42,1.05 -0.955,1.909 -1.604,2.578c-0.649,0.668 -1.394,1.165 -2.234,1.489c-0.84,0.325 -1.662,0.525 -2.464,0.602l0,0.343c0.802,0.039 1.69,0.23 2.664,0.573c0.974,0.344 1.881,0.888 2.721,1.633c0.84,0.745 1.547,1.699 2.12,2.864c0.573,1.165 0.859,2.588 0.859,4.268c0,1.604 -0.258,3.112 -0.773,4.526c-0.516,1.413 -1.232,2.635 -2.148,3.666c-0.917,1.031 -2.005,1.842 -3.266,2.434c-1.26,0.592 -2.635,0.888 -4.124,0.888l-19.477,0l-0,-39.985Zm6.473,34.429l11.113,-0c1.681,-0 2.998,-0.44 3.953,-1.318c0.955,-0.878 1.432,-2.139 1.432,-3.781l0,-1.947c0,-1.643 -0.477,-2.903 -1.432,-3.781c-0.955,-0.879 -2.272,-1.318 -3.953,-1.318l-11.113,0l-0,12.145Zm-0,-17.53l10.025,0c1.604,0 2.845,-0.41 3.723,-1.231c0.879,-0.821 1.318,-1.996 1.318,-3.523l0,-1.834c0,-1.527 -0.439,-2.701 -1.318,-3.523c-0.878,-0.821 -2.119,-1.231 -3.723,-1.231l-10.025,-0l-0,11.342Z" style="fill:#343433;fill-rule:nonzero;"/><path d="M808.68,309.987l-3.609,-10.827l-14.952,0l-3.494,10.827l-6.588,0l13.634,-39.985l8.135,0l13.634,39.985l-6.76,0Zm-10.942,-34.027l-0.286,-0l-5.786,17.644l11.801,-0l-5.729,-17.644Z" style="fill:#343433;fill-rule:nonzero;"/></g></g></g></svg>