<?xml version="1.0" encoding="UTF-8" standalone="no"?><!DOCTYPE svg PUBLIC "-//W3C//DTD SVG 1.1//EN" "http://www.w3.org/Graphics/SVG/1.1/DTD/svg11.dtd"><svg width="100%" height="100%" viewBox="0 0 305 368" version="1.1" xmlns="http://www.w3.org/2000/svg" xmlns:xlink="http://www.w3.org/1999/xlink" xml:space="preserve" xmlns:serif="http://www.serif.com/" style="fill-rule:evenodd;clip-rule:evenodd;stroke-linejoin:round;stroke-miterlimit:2;"><rect id="icon" x="0.983" y="0.695" width="303.023" height="367.188" style="fill:none;"/><g><g><g><path d="M263.887,65.834c0.067,-0.405 0.135,-0.809 0.135,-1.213c-0,-13.681 -52.229,-33.629 -110.658,-33.629c-58.429,0 -113.623,18.937 -113.623,32.618c0,0.404 0.068,0.808 0.135,1.213l32.214,225.358l0.067,0c-0,0.337 -0.067,0.674 -0.067,1.011c-0,23.453 36.391,42.457 81.274,42.457c44.883,0 81.275,-19.004 81.275,-42.457c-0,-0.337 -0.067,-0.674 -0.067,-1.011l0.067,0l29.248,-224.347Z" style="fill:#b5cde3;fill-rule:nonzero;"/><path d="M75.19,159.778l17.387,128.651c-0,0 5.256,9.368 8.154,10.918c8.694,4.515 25.676,12.535 52.701,12.063c36.054,-0.607 57.485,-13.681 57.485,-13.681l5.796,-9.03l16.915,-134.514l-158.438,5.593Z" style="fill:#fbde34;fill-rule:nonzero;"/><path d="M67.777,96.43c2.493,-4.65 6.806,-11.053 11.793,-14.085c4.987,-3.033 36.122,-13.007 76.49,-12.67c40.3,0.337 71.975,11.861 76.625,16.983c4.65,5.122 8.424,15.028 8.424,15.028l-7.481,52.499c0,-0 -7.143,4.919 -15.365,7.615c-8.222,2.695 -31.27,0.539 -38.077,3.504c-6.806,2.898 -26.08,13.344 -26.08,13.344c-0,-0 -17.455,13.95 -35.853,9.906c-11.659,-2.493 -23.655,-23.385 -31.876,-23.991c-6.403,-0.472 -10.513,-2.628 -10.513,-2.628c-0,-0 -10.581,-60.855 -8.087,-65.505Z" style="fill:#fff;fill-rule:nonzero;"/><path d="M121.286,208.637c-0,7.413 -7.616,13.411 -16.983,13.411c-9.368,0 -16.983,-5.998 -16.983,-13.411c0,-7.413 7.615,-13.411 16.983,-13.411c9.435,0.068 16.983,5.998 16.983,13.411Z" style="fill:#fff;fill-rule:nonzero;"/><path d="M117.714,225.957c-0,3.774 -3.774,6.874 -8.491,6.874c-4.718,-0 -8.492,-3.1 -8.492,-6.874c0,-3.774 3.774,-6.874 8.492,-6.874c4.717,-0 8.491,3.1 8.491,6.874Z" style="fill:#fff;fill-rule:nonzero;"/></g><g><path d="M96.822,283.779l12.805,-7.75c2.493,4.381 4.717,8.087 10.109,8.087c5.189,0 8.424,-2.022 8.424,-9.839l-0,-53.374l15.635,-0l-0,53.576c-0,16.242 -9.503,23.655 -23.453,23.655c-12.535,-0 -19.813,-6.537 -23.52,-14.355" style="fill:#343433;fill-rule:nonzero;"/><path d="M152.353,282.094l12.805,-7.413c3.369,5.526 7.75,9.503 15.5,9.503c6.47,-0 10.648,-3.235 10.648,-7.75c-0,-5.392 -4.246,-7.279 -11.457,-10.446l-3.908,-1.685c-11.322,-4.785 -18.803,-10.85 -18.803,-23.655c0,-11.793 8.963,-20.756 22.981,-20.756c9.974,-0 17.185,3.504 22.307,12.535l-12.198,7.817c-2.696,-4.785 -5.594,-6.739 -10.109,-6.739c-4.583,-0 -7.481,2.898 -7.481,6.739c0,4.717 2.898,6.604 9.637,9.502l3.909,1.685c13.344,5.728 20.824,11.524 20.824,24.666c0,14.152 -11.119,21.835 -26.013,21.835c-14.624,0.202 -24.059,-6.74 -28.642,-15.838" style="fill:#343433;fill-rule:nonzero;"/></g></g><g id="beerjs--1-.svg" serif:id="beerjs (1).svg"></g></g></svg>