<?xml version="1.0" encoding="UTF-8" standalone="no"?><!DOCTYPE svg PUBLIC "-//W3C//DTD SVG 1.1//EN" "http://www.w3.org/Graphics/SVG/1.1/DTD/svg11.dtd"><svg width="100%" height="100%" viewBox="0 0 567 618" version="1.1" xmlns="http://www.w3.org/2000/svg" xmlns:xlink="http://www.w3.org/1999/xlink" xml:space="preserve" xmlns:serif="http://www.serif.com/" style="fill-rule:evenodd;clip-rule:evenodd;stroke-linejoin:round;stroke-miterlimit:2;"><rect id="beerjs-cbba" x="0.755" y="0.467" width="566.099" height="617.431" style="fill:none;"/><g><g><g><path d="M391.989,65.605c0.067,-0.404 0.134,-0.808 0.134,-1.213c0,-13.68 -52.228,-33.628 -110.657,-33.628c-58.429,-0 -113.623,18.937 -113.623,32.617c-0,0.405 0.067,0.809 0.135,1.213l32.213,225.359l0.067,0c0,0.337 -0.067,0.674 -0.067,1.011c0,23.452 36.392,42.457 81.275,42.457c44.883,-0 81.274,-19.005 81.274,-42.457c0,-0.337 -0.067,-0.674 -0.067,-1.011l0.067,0l29.249,-224.348Z" style="fill:#b5cde3;fill-rule:nonzero;"/><path d="M203.291,159.55l17.387,128.651c0,-0 5.257,9.367 8.155,10.917c8.693,4.516 25.676,12.535 52.7,12.064c36.055,-0.607 57.485,-13.681 57.485,-13.681l5.796,-9.031l16.916,-134.514l-158.439,5.594Z" style="fill:#fbde34;fill-rule:nonzero;"/><path d="M195.878,96.201c2.493,-4.65 6.807,-11.052 11.794,-14.085c4.987,-3.032 36.122,-13.006 76.489,-12.669c40.301,0.337 71.975,11.861 76.625,16.982c4.65,5.122 8.424,15.029 8.424,15.029l-7.48,52.498c-0,0 -7.144,4.92 -15.366,7.615c-8.222,2.696 -31.27,0.54 -38.076,3.505c-6.807,2.898 -26.081,13.343 -26.081,13.343c0,0 -17.454,13.951 -35.852,9.907c-11.659,-2.493 -23.655,-23.385 -31.877,-23.991c-6.402,-0.472 -10.513,-2.629 -10.513,-2.629c-0,0 -10.581,-60.855 -8.087,-65.505Z" style="fill:#fff;fill-rule:nonzero;"/><path d="M249.387,208.409c0,7.413 -7.615,13.411 -16.983,13.411c-9.367,-0 -16.982,-5.998 -16.982,-13.411c-0,-7.413 7.615,-13.411 16.982,-13.411c9.435,0.067 16.983,5.998 16.983,13.411Z" style="fill:#fff;fill-rule:nonzero;"/><path d="M245.815,225.729c0,3.774 -3.774,6.874 -8.491,6.874c-4.717,-0 -8.491,-3.1 -8.491,-6.874c-0,-3.774 3.774,-6.874 8.491,-6.874c4.717,-0 8.491,3.1 8.491,6.874Z" style="fill:#fff;fill-rule:nonzero;"/></g><g><path d="M224.924,283.551l12.804,-7.75c2.494,4.38 4.718,8.087 10.109,8.087c5.189,-0 8.424,-2.022 8.424,-9.839l0,-53.375l15.635,0l0,53.577c0,16.241 -9.502,23.654 -23.452,23.654c-12.535,0 -19.814,-6.537 -23.52,-14.354" style="fill:#343433;fill-rule:nonzero;"/><path d="M280.455,281.866l12.804,-7.413c3.37,5.526 7.75,9.502 15.5,9.502c6.47,0 10.648,-3.235 10.648,-7.75c0,-5.391 -4.245,-7.278 -11.456,-10.446l-3.909,-1.684c-11.322,-4.785 -18.802,-10.851 -18.802,-23.655c-0,-11.794 8.963,-20.757 22.98,-20.757c9.974,0 17.185,3.505 22.307,12.535l-12.198,7.818c-2.696,-4.785 -5.593,-6.74 -10.109,-6.74c-4.582,0 -7.48,2.898 -7.48,6.74c-0,4.717 2.898,6.604 9.637,9.502l3.909,1.685c13.343,5.728 20.824,11.524 20.824,24.665c-0,14.152 -11.12,21.835 -26.014,21.835c-14.624,0.202 -24.059,-6.739 -28.641,-15.837" style="fill:#343433;fill-rule:nonzero;"/></g></g><g><g><path d="M63.041,384.301l37.455,-0c6.408,-0 11.399,1.804 14.971,5.413c3.573,3.61 5.359,8.398 5.359,14.364c-0,2.946 -0.387,5.451 -1.16,7.513c-0.774,2.062 -1.805,3.757 -3.094,5.082c-1.289,1.326 -2.799,2.302 -4.53,2.928c-1.731,0.626 -3.591,0.976 -5.58,1.05l0,0.663c1.842,-0 3.775,0.331 5.801,0.994c2.026,0.663 3.885,1.713 5.58,3.149c1.694,1.437 3.112,3.296 4.253,5.58c1.142,2.283 1.713,5.082 1.713,8.397c-0,3.02 -0.497,5.874 -1.492,8.563c-0.994,2.688 -2.375,5.027 -4.143,7.016c-1.768,1.988 -3.867,3.554 -6.298,4.695c-2.43,1.142 -5.082,1.713 -7.955,1.713l-40.88,-0l-0,-77.12Zm16.794,62.977l19.335,0c2.21,0 3.959,-0.607 5.248,-1.823c1.289,-1.215 1.934,-2.927 1.934,-5.137l-0,-3.757c-0,-2.21 -0.645,-3.922 -1.934,-5.137c-1.289,-1.216 -3.038,-1.824 -5.248,-1.824l-19.335,0l-0,17.678Zm-0,-31.378l16.683,0c2.21,0 3.941,-0.626 5.193,-1.878c1.253,-1.252 1.879,-2.983 1.879,-5.193l-0,-3.315c-0,-2.21 -0.626,-3.941 -1.879,-5.193c-1.252,-1.252 -2.983,-1.878 -5.193,-1.878l-16.683,-0l-0,17.457Z" style="fill:#343433;fill-rule:nonzero;"/><path d="M144.47,461.421l0,-77.12l52.482,-0l-0,14.915l-35.688,0l0,15.69l30.605,-0l0,14.915l-30.605,0l0,16.684l35.688,0l-0,14.916l-52.482,-0Z" style="fill:#343433;fill-rule:nonzero;"/><path d="M219.27,461.421l0,-77.12l52.482,-0l-0,14.915l-35.688,0l0,15.69l30.605,-0l0,14.915l-30.605,0l0,16.684l35.688,0l-0,14.916l-52.482,-0Z" style="fill:#343433;fill-rule:nonzero;"/><path d="M310.864,461.421l-16.794,-0l0,-77.12l36.572,-0c3.535,-0 6.739,0.589 9.612,1.767c2.873,1.179 5.322,2.855 7.347,5.028c2.026,2.172 3.591,4.769 4.696,7.789c1.105,3.02 1.658,6.371 1.658,10.054c-0,5.23 -1.161,9.797 -3.481,13.701c-2.32,3.904 -5.837,6.74 -10.551,8.507l15.136,30.274l-18.672,-0l-13.479,-28.285l-12.044,0l0,28.285Zm17.678,-42.427c2.505,-0 4.475,-0.645 5.911,-1.934c1.437,-1.289 2.155,-3.186 2.155,-5.69l-0,-4.861c-0,-2.505 -0.718,-4.402 -2.155,-5.691c-1.436,-1.289 -3.406,-1.933 -5.911,-1.933l-17.678,-0l0,20.109l17.678,-0Z" style="fill:#343433;fill-rule:nonzero;"/><path d="M417.595,384.301l0,54.801c0,3.536 -0.57,6.759 -1.712,9.668c-1.142,2.91 -2.818,5.377 -5.027,7.403c-2.21,2.025 -4.88,3.609 -8.011,4.751c-3.13,1.141 -6.684,1.712 -10.662,1.712c-3.83,0 -7.2,-0.515 -10.109,-1.547c-2.91,-1.031 -5.414,-2.504 -7.514,-4.419c-2.099,-1.915 -3.811,-4.199 -5.137,-6.85c-1.326,-2.652 -2.247,-5.598 -2.762,-8.839l15.689,-3.094c1.252,6.703 4.456,10.054 9.612,10.054c2.431,0 4.512,-0.773 6.243,-2.32c1.731,-1.547 2.596,-3.977 2.596,-7.292l0,-40.549l-23.423,0l-0,-13.479l40.217,-0Z" style="fill:#f7d518;fill-rule:nonzero;"/><path d="M466.873,462.747c-6.777,-0 -12.522,-1.162 -17.236,-3.485c-4.714,-2.323 -8.729,-5.329 -12.043,-9.018l11.048,-11.173c5.23,5.84 11.675,8.76 19.336,8.76c4.125,-0 7.181,-0.839 9.17,-2.518c1.989,-1.679 2.983,-3.905 2.983,-6.68c0,-2.117 -0.589,-3.887 -1.767,-5.31c-1.179,-1.423 -3.573,-2.39 -7.182,-2.901l-7.624,-0.986c-8.176,-1.032 -14.161,-3.502 -17.954,-7.411c-3.793,-3.908 -5.69,-9.108 -5.69,-15.598c-0,-3.466 0.663,-6.637 1.989,-9.514c1.325,-2.876 3.222,-5.346 5.69,-7.412c2.467,-2.065 5.487,-3.669 9.06,-4.812c3.572,-1.143 7.642,-1.714 12.209,-1.714c5.819,-0 10.938,0.922 15.357,2.766c4.42,1.845 8.213,4.537 11.381,8.079l-11.16,11.288c-1.841,-2.114 -4.069,-3.845 -6.684,-5.194c-2.615,-1.349 -5.911,-2.023 -9.889,-2.023c-3.756,-0 -6.555,0.656 -8.397,1.968c-1.841,1.312 -2.762,3.134 -2.762,5.467c-0,2.625 0.718,4.521 2.154,5.688c1.437,1.166 3.775,2.004 7.016,2.514l7.624,1.217c7.955,1.253 13.848,3.705 17.678,7.355c3.83,3.65 5.745,8.83 5.745,15.54c0,3.687 -0.662,7.078 -1.988,10.175c-1.326,3.097 -3.26,5.752 -5.801,7.964c-2.541,2.212 -5.69,3.926 -9.447,5.143c-3.756,1.216 -8.028,1.825 -12.816,1.825Z" style="fill:#f7d518;fill-rule:nonzero;"/></g><g><path d="M53.362,548.419c-5.232,-0 -9.337,-1.766 -12.316,-5.299c-2.979,-3.533 -4.469,-8.66 -4.469,-15.381c0,-3.361 0.382,-6.321 1.146,-8.879c0.764,-2.559 1.871,-4.717 3.323,-6.474c1.451,-1.756 3.217,-3.083 5.299,-3.981c2.081,-0.897 4.42,-1.346 7.017,-1.346c3.475,-0 6.387,0.756 8.736,2.268c2.349,1.513 4.191,3.755 5.528,6.726l-5.442,2.979c-0.687,-1.91 -1.747,-3.428 -3.179,-4.555c-1.432,-1.126 -3.313,-1.69 -5.643,-1.69c-3.093,0 -5.518,1.055 -7.275,3.163c-1.757,2.109 -2.635,5.022 -2.635,8.741l-0,6.096c-0,3.718 0.878,6.632 2.635,8.741c1.757,2.108 4.182,3.162 7.275,3.162c2.406,0 4.363,-0.62 5.872,-1.861c1.508,-1.242 2.625,-2.836 3.351,-4.784l5.213,3.151c-1.337,2.896 -3.208,5.158 -5.614,6.784c-2.406,1.626 -5.347,2.439 -8.822,2.439Z" style="fill:#343433;fill-rule:nonzero;"/><path d="M100.852,548.419c-2.597,-0 -4.956,-0.449 -7.075,-1.346c-2.12,-0.898 -3.934,-2.215 -5.442,-3.953c-1.509,-1.738 -2.674,-3.895 -3.495,-6.473c-0.821,-2.578 -1.231,-5.547 -1.231,-8.908c-0,-3.361 0.41,-6.33 1.231,-8.908c0.821,-2.578 1.986,-4.736 3.495,-6.473c1.508,-1.738 3.322,-3.055 5.442,-3.953c2.119,-0.897 4.478,-1.346 7.075,-1.346c2.597,-0 4.955,0.449 7.074,1.346c2.12,0.898 3.934,2.215 5.443,3.953c1.508,1.737 2.673,3.895 3.494,6.473c0.821,2.578 1.232,5.547 1.232,8.908c-0,3.361 -0.411,6.33 -1.232,8.908c-0.821,2.578 -1.986,4.735 -3.494,6.473c-1.509,1.738 -3.323,3.055 -5.443,3.953c-2.119,0.897 -4.477,1.346 -7.074,1.346Zm-0,-5.729c1.527,0 2.931,-0.268 4.21,-0.805c1.28,-0.536 2.368,-1.313 3.265,-2.329c0.898,-1.016 1.595,-2.252 2.091,-3.709c0.497,-1.457 0.745,-3.105 0.745,-4.945l0,-6.326c0,-1.84 -0.248,-3.488 -0.745,-4.945c-0.496,-1.457 -1.193,-2.694 -2.091,-3.709c-0.897,-1.016 -1.985,-1.793 -3.265,-2.329c-1.279,-0.537 -2.683,-0.806 -4.21,-0.806c-1.566,0 -2.979,0.269 -4.239,0.806c-1.261,0.536 -2.34,1.313 -3.237,2.329c-0.898,1.015 -1.595,2.252 -2.091,3.709c-0.496,1.457 -0.745,3.105 -0.745,4.945l0,6.326c0,1.84 0.249,3.488 0.745,4.945c0.496,1.457 1.193,2.693 2.091,3.709c0.897,1.016 1.976,1.793 3.237,2.329c1.26,0.537 2.673,0.805 4.239,0.805Z" style="fill:#343433;fill-rule:nonzero;"/><path d="M152.638,548.419c-5.232,-0 -9.338,-1.766 -12.317,-5.299c-2.979,-3.533 -4.468,-8.66 -4.468,-15.381c0,-3.361 0.382,-6.321 1.146,-8.879c0.764,-2.559 1.871,-4.717 3.322,-6.474c1.452,-1.756 3.218,-3.083 5.299,-3.981c2.082,-0.897 4.421,-1.346 7.018,-1.346c3.475,-0 6.387,0.756 8.736,2.268c2.348,1.513 4.191,3.755 5.528,6.726l-5.442,2.979c-0.688,-1.91 -1.748,-3.428 -3.18,-4.555c-1.432,-1.126 -3.313,-1.69 -5.642,-1.69c-3.094,0 -5.519,1.055 -7.276,3.163c-1.756,2.109 -2.635,5.022 -2.635,8.741l0,6.096c0,3.718 0.879,6.632 2.635,8.741c1.757,2.108 4.182,3.162 7.276,3.162c2.406,0 4.363,-0.62 5.871,-1.861c1.509,-1.242 2.626,-2.836 3.352,-4.784l5.213,3.151c-1.337,2.896 -3.208,5.158 -5.614,6.784c-2.406,1.626 -5.347,2.439 -8.822,2.439Z" style="fill:#343433;fill-rule:nonzero;"/><path d="M209.98,530.317l-18.102,-0l0,17.415l-6.473,-0l-0,-39.986l6.473,0l0,16.842l18.102,0l0,-16.842l6.474,0l-0,39.986l-6.474,-0l0,-17.415Z" style="fill:#343433;fill-rule:nonzero;"/><path d="M262.74,547.732l-3.609,-10.827l-14.951,-0l-3.495,10.827l-6.588,-0l13.634,-39.986l8.135,0l13.634,39.986l-6.76,-0Zm-10.941,-34.028l-0.287,-0l-5.786,17.644l11.801,-0l-5.728,-17.644Z" style="fill:#343433;fill-rule:nonzero;"/><path d="M287.144,507.746l17.701,0c3.323,0 5.929,0.936 7.819,2.807c1.891,1.872 2.836,4.373 2.836,7.505c0,1.489 -0.21,2.759 -0.63,3.809c-0.42,1.05 -0.955,1.91 -1.604,2.578c-0.649,0.668 -1.394,1.165 -2.234,1.489c-0.84,0.325 -1.661,0.526 -2.463,0.602l-0,0.344c0.802,0.038 1.689,0.229 2.663,0.572c0.974,0.344 1.881,0.888 2.721,1.633c0.841,0.745 1.547,1.7 2.12,2.864c0.573,1.165 0.859,2.588 0.859,4.268c0,1.604 -0.258,3.113 -0.773,4.526c-0.516,1.413 -1.232,2.635 -2.148,3.666c-0.917,1.031 -2.005,1.843 -3.266,2.435c-1.26,0.592 -2.635,0.888 -4.124,0.888l-19.477,-0l-0,-39.986Zm6.473,34.429l11.113,-0c1.681,-0 2.998,-0.439 3.953,-1.318c0.955,-0.878 1.432,-2.138 1.432,-3.781l0,-1.947c0,-1.642 -0.477,-2.903 -1.432,-3.781c-0.955,-0.878 -2.272,-1.318 -3.953,-1.318l-11.113,0l0,12.145Zm0,-17.529l10.025,-0c1.604,-0 2.845,-0.411 3.724,-1.232c0.878,-0.821 1.317,-1.996 1.317,-3.523l0,-1.833c0,-1.528 -0.439,-2.702 -1.317,-3.523c-0.879,-0.821 -2.12,-1.232 -3.724,-1.232l-10.025,-0l0,11.343Z" style="fill:#343433;fill-rule:nonzero;"/><path d="M360.641,547.732l-3.609,-10.827l-14.952,-0l-3.494,10.827l-6.588,-0l13.634,-39.986l8.135,0l13.634,39.986l-6.76,-0Zm-10.942,-34.028l-0.286,-0l-5.786,17.644l11.801,-0l-5.729,-17.644Z" style="fill:#343433;fill-rule:nonzero;"/><path d="M415.635,517.141l-0.287,0l-3.15,6.473l-8.765,15.983l-8.765,-15.983l-3.15,-6.473l-0.287,0l0,30.591l-6.186,-0l-0,-39.986l7.676,0l10.712,20.337l0.344,-0l10.712,-20.337l7.333,0l-0,39.986l-6.187,-0l-0,-30.591Z" style="fill:#343433;fill-rule:nonzero;"/><path d="M443.132,507.746l17.701,0c3.323,0 5.929,0.936 7.82,2.807c1.89,1.872 2.835,4.373 2.835,7.505c0,1.489 -0.21,2.759 -0.63,3.809c-0.42,1.05 -0.955,1.91 -1.604,2.578c-0.649,0.668 -1.394,1.165 -2.234,1.489c-0.84,0.325 -1.661,0.526 -2.463,0.602l-0,0.344c0.802,0.038 1.69,0.229 2.663,0.572c0.974,0.344 1.881,0.888 2.721,1.633c0.841,0.745 1.547,1.7 2.12,2.864c0.573,1.165 0.859,2.588 0.859,4.268c0,1.604 -0.257,3.113 -0.773,4.526c-0.516,1.413 -1.232,2.635 -2.148,3.666c-0.917,1.031 -2.005,1.843 -3.266,2.435c-1.26,0.592 -2.635,0.888 -4.124,0.888l-19.477,-0l-0,-39.986Zm6.473,34.429l11.114,-0c1.68,-0 2.997,-0.439 3.952,-1.318c0.955,-0.878 1.432,-2.138 1.432,-3.781l0,-1.947c0,-1.642 -0.477,-2.903 -1.432,-3.781c-0.955,-0.878 -2.272,-1.318 -3.952,-1.318l-11.114,0l0,12.145Zm0,-17.529l10.025,-0c1.604,-0 2.845,-0.411 3.724,-1.232c0.878,-0.821 1.317,-1.996 1.317,-3.523l0,-1.833c0,-1.528 -0.439,-2.702 -1.317,-3.523c-0.879,-0.821 -2.12,-1.232 -3.724,-1.232l-10.025,-0l0,11.343Z" style="fill:#343433;fill-rule:nonzero;"/><path d="M516.629,547.732l-3.609,-10.827l-14.951,-0l-3.495,10.827l-6.588,-0l13.634,-39.986l8.135,0l13.634,39.986l-6.76,-0Zm-10.941,-34.028l-0.287,-0l-5.786,17.644l11.801,-0l-5.728,-17.644Z" style="fill:#343433;fill-rule:nonzero;"/></g></g></g></svg>